M48
;Layer_Color=9474304
;FILE_FORMAT=2:5
INCH,TZ
;TYPE=PLATED
T1F00S00C0.03346
T2F00S00C0.03500
T3F00S00C0.03543
T4F00S00C0.03937
T5F00S00C0.04500
T6F00S00C0.04724
T7F00S00C0.10000
T8F00S00C0.14000
T9F00S00C0.20000
%
T01
X17000Y55000
Y85000
Y95000
Y125000
Y137000
X47000
X145500Y51500
X134500Y19000
X164500
X187000Y31000
Y40000
X175500Y51500
X217000Y40000
Y31000
X217500Y165000
X187500
X280000Y235000
X310000
T02
X17000Y46000
Y147000
X116000Y81500
X125491
X217000Y49000
X265000Y152500
X326000Y235000
X265000Y247000
X235000
Y258500
X170500Y165000
T03
X235000Y165000
Y175000
Y185000
Y195000
Y205000
Y215000
Y225000
Y235000
X265000
Y225000
Y215000
Y205000
Y195000
Y185000
Y175000
Y165000
T04
X39500Y95000
Y105000
Y115000
X104500Y60000
Y50000
Y40000
T05
X68000Y110000
Y130000
X330000Y190000
Y210000
X170000
Y190000
T06
X122000Y18910
X134409Y40000
X122000Y60091
X175591Y40000
T07
X115000Y141500
X397000Y258500
X280000Y200000
X220000
X150500Y338000
Y359500
X174000
Y338000
T08
X147250Y78500
X364750Y141500
X147250Y258500
X364750Y321500
T09
X50000Y50000
X250000
X325000
X450000
X50000Y350000
X250000
X325000
X450000
M30
