G04*
G04 #@! TF.GenerationSoftware,Altium Limited,Altium Designer,18.1.6 (161)*
G04*
G04 Layer_Physical_Order=1*
G04 Layer_Color=255*
%FSLAX25Y25*%
%MOIN*%
G70*
G01*
G75*
%ADD10R,0.30000X0.30000*%
%ADD11C,0.30000*%
%ADD12C,0.06000*%
%ADD13C,0.01000*%
%ADD14C,0.08000*%
%ADD15R,0.08000X0.08000*%
%ADD16C,0.05512*%
%ADD17R,0.06299X0.06299*%
%ADD18C,0.06299*%
%ADD19R,0.05906X0.05906*%
%ADD20C,0.05906*%
%ADD21C,0.14000*%
%ADD22C,0.10000*%
%ADD23C,0.35000*%
%ADD24C,0.07874*%
%ADD25R,0.07874X0.07874*%
%ADD26R,0.07874X0.07874*%
%ADD27C,0.06000*%
%ADD28C,0.15000*%
G36*
X77500Y86500D02*
X131500Y86500D01*
X131500Y57500D01*
X80000Y57500D01*
X65000Y72500D01*
X22000D01*
X9500Y85000D01*
Y98000D01*
X66000D01*
X77500Y86500D01*
D02*
G37*
G36*
X197000Y230000D02*
X24500D01*
Y382500D01*
X197000D01*
Y230000D01*
D02*
G37*
G36*
X292500Y208000D02*
Y192000D01*
X207500Y192000D01*
Y208000D01*
X292500Y208000D01*
D02*
G37*
%LPC*%
G36*
X122000Y61620D02*
X121415Y61503D01*
X120919Y61172D01*
X120828Y61081D01*
X120496Y60585D01*
X120380Y60000D01*
X120496Y59415D01*
X120828Y58919D01*
X121324Y58587D01*
X121909Y58471D01*
X122495Y58587D01*
X122991Y58919D01*
X123081Y59009D01*
X123413Y59505D01*
X123529Y60091D01*
X123413Y60676D01*
X123081Y61172D01*
X122585Y61503D01*
X122000Y61620D01*
D02*
G37*
G36*
X147250Y270537D02*
X145367Y270389D01*
X143530Y269948D01*
X141785Y269225D01*
X140175Y268238D01*
X138739Y267011D01*
X137512Y265575D01*
X136525Y263965D01*
X135802Y262220D01*
X135361Y260383D01*
X135213Y258500D01*
X135361Y256617D01*
X135802Y254780D01*
X136525Y253035D01*
X137512Y251425D01*
X138739Y249989D01*
X140175Y248762D01*
X141785Y247775D01*
X143530Y247052D01*
X145367Y246611D01*
X147250Y246463D01*
X149133Y246611D01*
X150970Y247052D01*
X152715Y247775D01*
X154325Y248762D01*
X155762Y249989D01*
X156988Y251425D01*
X157975Y253035D01*
X158698Y254780D01*
X159139Y256617D01*
X159287Y258500D01*
X159139Y260383D01*
X158698Y262220D01*
X157975Y263965D01*
X156988Y265575D01*
X155762Y267011D01*
X154325Y268238D01*
X152715Y269225D01*
X150970Y269948D01*
X149133Y270389D01*
X147250Y270537D01*
D02*
G37*
%LPD*%
D10*
X412000Y110000D02*
D03*
X100000D02*
D03*
Y290000D02*
D03*
X412000D02*
D03*
D11*
Y110000D02*
X429000Y127000D01*
Y273000D01*
X412000Y290000D02*
X429000Y273000D01*
D12*
X325000Y215000D02*
X330000Y210000D01*
X265000Y215000D02*
X325000D01*
Y185000D02*
X330000Y190000D01*
X265000Y185000D02*
X325000D01*
X170000Y190000D02*
X175000Y185000D01*
X170000Y210000D02*
X175000Y215000D01*
Y185000D02*
X235000D01*
X259000Y225000D02*
X265000D01*
X250000Y234000D02*
X259000Y225000D01*
X250000Y234000D02*
Y252500D01*
X268000Y270500D02*
X287500D01*
X250000Y252500D02*
X268000Y270500D01*
X367000Y350000D02*
X450000D01*
X287500Y270500D02*
X367000Y350000D01*
X265000Y235000D02*
Y247000D01*
X235000D02*
Y258500D01*
X175591Y40000D02*
X187000D01*
X17000Y137000D02*
Y147000D01*
X170500Y165000D02*
X187500D01*
X217000Y40000D02*
Y49000D01*
X17000Y46000D02*
Y55000D01*
X265000Y152500D02*
Y165000D01*
X310000Y235000D02*
X326000D01*
X134409Y40000D02*
X145500Y51091D01*
X175591Y40000D02*
Y51410D01*
X164500Y19000D02*
X212500D01*
X217000Y23500D01*
Y31000D01*
X122000Y18910D02*
X134409D01*
X73000Y137000D02*
X95000Y115000D01*
X47000Y137000D02*
X73000D01*
X17000Y125000D02*
Y137000D01*
Y114500D02*
Y125000D01*
Y114500D02*
X26500Y105000D01*
X39500D01*
X50000Y50000D02*
X81090Y18910D01*
X122000D01*
X104500Y40000D02*
X134409D01*
X39500Y115000D02*
X95000D01*
X217000Y31000D02*
Y40000D01*
X187000Y31000D02*
Y40000D01*
X50000Y50000D02*
X104500D01*
X217500Y165000D02*
X235000D01*
X215000Y315000D02*
X250000Y350000D01*
X215000Y232500D02*
Y315000D01*
Y232500D02*
X222500Y225000D01*
X235000D01*
Y235000D02*
Y247000D01*
X265000Y235000D02*
X280000D01*
X409500Y50000D02*
X450000D01*
X284500Y175000D02*
X409500Y50000D01*
X265000Y175000D02*
X284500D01*
X235000D02*
X245000D01*
X250000Y170000D01*
Y50000D02*
Y170000D01*
X100000Y110000D02*
X180000D01*
X235000Y165000D01*
X175000Y215000D02*
X235000D01*
D13*
X145500Y51091D02*
Y51500D01*
X175500D02*
X175591Y51410D01*
X134409Y18910D02*
X134500Y19000D01*
X95000Y115000D02*
X100000Y110000D01*
X121909Y60000D02*
X122000Y60091D01*
D14*
X330000Y190000D02*
D03*
X170000Y210000D02*
D03*
D15*
X330000D02*
D03*
X170000Y190000D02*
D03*
D16*
X310000Y235000D02*
D03*
X280000D02*
D03*
X217500Y165000D02*
D03*
X187500D02*
D03*
X164500Y19000D02*
D03*
X134500D02*
D03*
X217000Y40000D02*
D03*
X187000D02*
D03*
X17000Y55000D02*
D03*
Y85000D02*
D03*
Y125000D02*
D03*
Y95000D02*
D03*
Y137000D02*
D03*
X47000D02*
D03*
X187000Y31000D02*
D03*
X217000D02*
D03*
X145500Y51500D02*
D03*
X175500D02*
D03*
D17*
X39500Y115000D02*
D03*
X104500Y40000D02*
D03*
D18*
X39500Y105000D02*
D03*
Y95000D02*
D03*
X104500Y60000D02*
D03*
Y50000D02*
D03*
D19*
X235000Y235000D02*
D03*
D20*
Y225000D02*
D03*
Y215000D02*
D03*
Y205000D02*
D03*
Y195000D02*
D03*
Y185000D02*
D03*
Y175000D02*
D03*
Y165000D02*
D03*
X265000Y235000D02*
D03*
Y225000D02*
D03*
Y215000D02*
D03*
Y205000D02*
D03*
Y195000D02*
D03*
Y185000D02*
D03*
Y175000D02*
D03*
Y165000D02*
D03*
D21*
X364750Y141500D02*
D03*
X147250Y78500D02*
D03*
Y258500D02*
D03*
X364750Y321500D02*
D03*
D22*
X115000Y141500D02*
D03*
X397000Y258500D02*
D03*
D23*
X450000Y50000D02*
D03*
Y350000D02*
D03*
X250000D02*
D03*
X50000D02*
D03*
Y50000D02*
D03*
X250000D02*
D03*
X325000Y350000D02*
D03*
Y50000D02*
D03*
D24*
X122000Y18910D02*
D03*
X175591Y40000D02*
D03*
D25*
X122000Y60091D02*
D03*
D26*
X134409Y40000D02*
D03*
D27*
X265000Y247000D02*
D03*
X116000Y81500D02*
D03*
X235000Y258500D02*
D03*
X17000Y147000D02*
D03*
X125491Y81500D02*
D03*
X217000Y49000D02*
D03*
X17000Y46000D02*
D03*
X170500Y165000D02*
D03*
X265000Y152500D02*
D03*
X326000Y235000D02*
D03*
X235000Y247000D02*
D03*
D28*
X280000Y200000D02*
D03*
X174000Y338000D02*
D03*
X150500D02*
D03*
Y359500D02*
D03*
X174000D02*
D03*
X220000Y200000D02*
D03*
M02*
