G04*
G04 #@! TF.GenerationSoftware,Altium Limited,Altium Designer,18.1.9 (240)*
G04*
G04 Layer_Physical_Order=2*
G04 Layer_Color=16711680*
%FSLAX25Y25*%
%MOIN*%
G70*
G01*
G75*
%ADD12C,0.08000*%
%ADD13R,0.08000X0.08000*%
%ADD14C,0.35000*%
%ADD15C,0.05906*%
%ADD16R,0.05906X0.05906*%
%ADD17C,0.05512*%
%ADD18C,0.07000*%
D12*
X140000Y366000D02*
D03*
X109500D02*
D03*
X369500D02*
D03*
X400000D02*
D03*
X140000Y34000D02*
D03*
X109500D02*
D03*
X390500D02*
D03*
X360000D02*
D03*
X291000Y289000D02*
D03*
X281000D02*
D03*
X271000D02*
D03*
X261000D02*
D03*
X251000D02*
D03*
X241000D02*
D03*
X231000D02*
D03*
X221000D02*
D03*
X211000D02*
D03*
X301000Y279000D02*
D03*
X291000D02*
D03*
X281000D02*
D03*
X271000D02*
D03*
X261000D02*
D03*
X251000D02*
D03*
X241000D02*
D03*
X231000D02*
D03*
X221000D02*
D03*
X211000D02*
D03*
X301000Y109000D02*
D03*
X211000D02*
D03*
X221000D02*
D03*
X231000D02*
D03*
X241000D02*
D03*
X251000D02*
D03*
X261000D02*
D03*
X271000D02*
D03*
X281000D02*
D03*
X291000D02*
D03*
X211000Y119000D02*
D03*
X221000D02*
D03*
X231000D02*
D03*
X241000D02*
D03*
X251000D02*
D03*
X261000D02*
D03*
X271000D02*
D03*
X281000D02*
D03*
X291000D02*
D03*
D13*
X301000Y289000D02*
D03*
Y119000D02*
D03*
D14*
X450000Y50000D02*
D03*
X250000D02*
D03*
X50000D02*
D03*
X250000Y350000D02*
D03*
X50000D02*
D03*
X450000D02*
D03*
D15*
X35000Y270000D02*
D03*
X45000D02*
D03*
X55000D02*
D03*
X65000D02*
D03*
X85000D02*
D03*
X75000D02*
D03*
D16*
X95000D02*
D03*
D17*
X167000Y350000D02*
D03*
X197000D02*
D03*
X333000D02*
D03*
X303000D02*
D03*
X167000Y50000D02*
D03*
X197000D02*
D03*
X333000D02*
D03*
X303000D02*
D03*
D18*
X329000Y79000D02*
D03*
X301000Y99000D02*
D03*
X231000Y166000D02*
D03*
Y136000D02*
D03*
X241000Y135500D02*
D03*
X241500Y166000D02*
D03*
X183000Y337500D02*
D03*
X197000Y337000D02*
D03*
X325500Y244000D02*
D03*
Y308000D02*
D03*
X197000Y288000D02*
D03*
X161500Y95500D02*
D03*
X147000Y76000D02*
D03*
X183500Y288000D02*
D03*
X211000Y76000D02*
D03*
Y95500D02*
D03*
M02*
