M48
;Layer_Color=9474304
;FILE_FORMAT=2:5
INCH,TZ
;TYPE=PLATED
T1F00S00C0.03346
T2F00S00C0.03500
T3F00S00C0.03543
T4F00S00C0.04000
T5F00S00C0.20000
%
T01
X167000Y50000
X197000
X303000
X333000
X303000Y350000
X197000
X167000
X333000
T02
X109500Y34000
X140000
X211000Y109000
X221000
X231000
X241000
X251000
X261000
X271000
X281000
X291000
X301000
Y119000
X291000
X281000
X271000
X261000
X251000
X241000
X231000
X221000
X211000
X360000Y34000
X390500
X301000Y279000
Y289000
X291000
X281000
X271000
X261000
X251000
X241000
X231000
X221000
X211000
Y279000
X221000
X231000
X241000
X251000
X261000
X271000
X281000
X291000
X140000Y366000
X109500
X369500
X400000
T03
X35000Y270000
X45000
X55000
X65000
X75000
X85000
X95000
T04
X147000Y76000
X161500Y95500
X211000
Y76000
X231000Y136000
X241000Y135500
X301000Y99000
X329000Y79000
X325500Y244000
Y308000
X197000Y288000
X183500
X231000Y166000
X241500
X197000Y337000
X183000Y337500
T05
X50000Y50000
X250000
X450000
X50000Y350000
X250000
X450000
M30
